<svg width="525" height="516" viewBox="0 0 525 516" fill="none" xmlns="http://www.w3.org/2000/svg">
<rect x="118.244" width="423.808" height="411.31" rx="205.655" transform="rotate(16.7072 118.244 0)" fill="#C9FFDD"></rect>
<path d="M310.666 152.915C311.211 147.05 312.968 146.082 317.395 142.576C318.935 141.357 318.503 139.975 321.191 139.926C322.004 140.433 321.803 141.102 322.295 141.488C323.746 142.627 334.073 137.793 340.838 148.163C345.497 149.434 344.293 153.456 340.48 154.997C341.148 161.86 340.942 165.289 338.316 171.826C337.205 174.124 334.999 178.171 332.587 179.311C332.533 180.426 332.501 181.741 332.4 182.834C330.556 185.175 325.842 189.496 325.179 190.689L325.336 190.968C328.1 190.239 330.373 187.953 332.266 185.932C336.621 194.248 335.886 202.17 335.586 211.037C335.395 216.708 334.388 223.69 337.806 228.073C338.855 229.419 346.636 232.466 348.692 233.718C359.237 232.074 365.4 230.296 374.177 237.926C375.691 233.473 380.12 211.877 382.184 210.993C386.629 209.09 420.36 198.41 423.273 198.922C424.072 199.496 424.441 199.663 424.603 200.704C424.78 201.857 424.469 203.259 424.218 204.384C422.898 210.268 421.008 216.076 419.504 221.918C417.678 229.008 416.149 236.355 413.969 243.334C413.679 244.261 413.29 245.589 412.673 246.345C411.104 248.269 373.234 263.666 369.779 264.222C364.227 265.113 358.209 265.066 352.591 265.403C343.707 265.936 334.782 266.665 325.889 266.982C324.499 267.034 322.37 267.2 321.288 266.162C320.574 265.479 320.277 264.729 320.234 263.782C321.457 261.217 329.516 258.876 332.539 257.762L332.568 256.738C328.884 257.363 328.175 257.272 324.489 256.327C319.716 261.049 302.953 259.665 296.544 259.152C287.447 258.29 275.972 256.344 269.497 249.325C260.126 239.166 261.076 222.642 263.682 210.095C264.205 207.577 264.926 204.621 264.992 202.098L264.568 201.707L264.069 201.917C261.571 206.212 260.251 220.975 260.221 226.042C260.024 258.53 285.123 261.717 311.608 261.282C309.056 264.698 305.644 266.268 303.627 269.181C301.365 272.977 299.253 277.027 297.083 280.876C276.254 317.843 254.724 333.856 210.768 325.032C231.231 314.755 249.299 303.169 266.984 288.569C268.763 287.102 274.203 283.146 274.423 281.072C272.122 280.646 262.402 289.501 260.054 291.35C252.13 297.632 243.87 303.48 235.311 308.869C225.351 315.085 213.769 321.85 202.93 326.28C196.982 328.712 188.538 330.865 182.267 332.837C161.489 339.362 142.418 349.519 127.038 365.15C124.533 367.696 121.044 370.837 117.046 370.065C108.732 368.027 114.258 356.668 116.358 351.778C121.606 339.993 129.421 329.235 139.661 321.318C144.662 317.434 150.094 314.54 155.356 311.122C147.806 313.282 141.701 317.167 134.468 319.635C133.056 320.118 129.593 318.647 130.021 316.389C131.495 308.601 139.259 301.413 144.282 295.493C147.643 291.658 153.44 287.608 158.225 286.175C163.82 285.019 172.219 286.784 178.222 287.155C183.748 287.499 187.875 287.641 193.324 287.624C188.043 291.732 182.661 295.712 177.183 299.554C178.032 296.067 181.344 290.579 181.108 288.775L180.564 288.64C177.932 290.293 175.482 297.936 174.862 301C170.22 304.453 164.501 306.953 159.996 310.646C159.402 312.866 159.036 315.144 158.9 317.439C158.514 323.306 159.773 333.145 163.78 337.707C164.788 338.013 164.311 338.044 165.258 337.624L165.418 337.11C160.676 329.508 160.159 320.327 161.546 311.719C163.146 310.838 164.885 309.747 166.415 308.739C178.674 300.654 191.723 292.822 203.429 283.989C219.685 271.723 233.62 256.655 244.577 239.493C244.507 226.547 249.261 224.199 254.603 213.458C262.331 197.92 266.247 182.273 282.846 173.611C278.42 162.902 289.328 153.903 299.032 152.43C303.334 151.778 306.454 151.847 310.666 152.915Z" fill="black"></path>
<path d="M310.666 152.915C311.211 147.05 312.968 146.082 317.395 142.576C318.934 141.357 318.503 139.975 321.191 139.926C322.004 140.433 321.803 141.102 322.295 141.488C323.746 142.627 334.073 137.793 340.838 148.163C345.497 149.434 344.293 153.456 340.48 154.997C341.148 161.86 340.942 165.288 338.316 171.826C337.713 171.552 337.177 171.564 336.514 171.509C335.884 171.622 331.458 168.979 330.532 168.467C324.056 167.663 324.525 167.92 319.314 170.229C315.492 169.922 317.25 165.855 313.888 164.129C310.964 164.083 311.716 160.236 312.707 158.449L311.756 158.932C311.345 158.532 310.951 158.175 310.525 157.793L310.69 156.124C310.788 155.465 310.688 153.665 310.666 152.915Z" fill="#FAF5FC"></path>
<path d="M310.666 152.915C311.211 147.05 312.968 146.082 317.395 142.576C318.934 141.357 318.503 139.975 321.191 139.926C322.004 140.433 321.803 141.102 322.295 141.488C323.746 142.627 334.073 137.793 340.838 148.163C345.497 149.434 344.293 153.456 340.48 154.997L338.821 155.125C331.757 154.942 328.221 151.783 321.754 151.27C319.98 151.13 319.384 156.257 318.753 157.538C318.253 158.551 317.704 159.318 316.914 160.336C315.125 159.021 314.796 158.697 312.707 158.449L311.756 158.932C311.345 158.532 310.951 158.175 310.525 157.793L310.69 156.124C310.788 155.465 310.688 153.665 310.666 152.915Z" fill="#091405"></path>
<path d="M338.821 155.125L340.48 154.997C341.148 161.861 340.942 165.289 338.316 171.826C337.713 171.552 337.177 171.564 336.514 171.509C338.976 165.249 339.323 161.759 338.821 155.125Z" fill="#091405"></path>
<path d="M329.964 160.955L330.208 160.261L330.821 160.094C332.263 161.119 333.077 165.321 332.192 167.061C332.018 167.403 330.907 168.192 330.532 168.467C329.25 167.557 328.662 167.556 328.15 166.405L328.354 165.934C329.259 165.906 329.641 165.945 330.546 166.049C330.955 165.081 330.196 162.155 329.964 160.955Z" fill="#091405"></path>
<path d="M312.642 170.197C312.645 167.815 312.053 165.739 313.888 164.13C317.25 165.855 315.493 169.922 319.314 170.229C324.525 167.92 324.056 167.663 330.532 168.468C331.458 168.979 335.884 171.622 336.515 171.509C337.177 171.564 337.713 171.552 338.316 171.826C337.205 174.124 334.999 178.171 332.587 179.311C329.96 180.751 329.432 180.632 326.689 181.456C319.197 180.288 315.967 176.677 312.642 170.197Z" fill="#091405"></path>
<path d="M323.144 171.082C325.871 170.842 332.375 170.996 333.334 174.147C333.129 175.224 332.579 175.538 331.746 176.293C330.644 175.805 329.075 174.459 328.065 173.662C326.188 174.632 322.903 175.942 321.918 173.086C322.206 171.994 322.334 171.883 323.144 171.082Z" fill="#FAF5FC"></path>
<path d="M310.525 157.794C308.627 158.037 306.107 157.097 304.258 158.887C296.125 166.763 318.734 183.655 318.141 188.391L317.53 188.797L316.889 188.588C312.163 181.052 301.275 171.772 300.814 162.543C300.549 157.223 306.096 155.752 310.69 156.124L310.525 157.794Z" fill="#FAF5FC"></path>
<path d="M312.642 170.197C315.967 176.677 319.197 180.288 326.689 181.456C325.019 184.29 323.922 185.249 321.453 187.351C318.54 182.491 313.908 177.784 311.967 173.952C312.125 172.385 312.252 171.726 312.642 170.197Z" fill="#FAF5FC"></path>
<path d="M332.568 256.738C335.114 255.787 337.561 254.896 340.257 254.416C337.631 255.78 335.291 256.676 332.539 257.763L332.568 256.738Z" fill="#FAF5FC"></path>
<path d="M421.874 200.614C422.49 200.417 422.171 200.476 422.888 200.637C423.286 201.94 412.716 241.803 411.522 245.458C408.928 246.97 401.969 249.683 399.037 250.904L374.439 261.181L373.466 261.455C372.857 260.553 375.421 251.899 375.835 250.3L382.186 225.533C383.294 221.199 384.98 215.283 385.725 210.989C397.517 208.076 409.975 203.755 421.874 200.614Z" fill="#FAF5FC"></path>
<path d="M400.021 224.544C407.337 222.288 405.221 231.013 401.173 234.516C394.319 236.225 396.417 227.836 400.021 224.544Z" fill="black"></path>
<path d="M401.124 225.793C402.017 225.724 401.982 225.689 402.746 226.129C404.084 228.637 401.893 231.545 400.151 233.286C399.657 233.215 399.433 233.101 398.965 232.935C397.309 230.606 399.517 227.586 401.124 225.793Z" fill="#FAF5FC"></path>
<path d="M365.133 247.029C366.022 246.618 370.475 246.531 371.696 246.834C372.02 248.486 369.354 257.814 368.786 260.003C365.958 259.935 359.965 260.476 356.945 260.659C349.335 261.126 341.724 261.552 334.11 261.933C331.236 261.97 327.651 262.294 324.732 262.478C330.452 260.025 337.853 257.384 343.827 255.014C345.59 255.877 349.634 258.345 351.454 256.835C353.296 255.308 353.957 257.76 356.353 256.652C360.235 254.858 357.35 249.478 361.632 248.321C362.651 248.029 364.076 247.399 365.133 247.029Z" fill="#FAF5FC"></path>
<path d="M327.615 243.877C334.334 242.559 340.742 242.505 347.524 243.274L347.092 244.254L346.286 244.909L346.189 246.117C345.197 245.981 345.083 246.022 344.186 246.473C344.158 246.927 344.019 246.944 344.542 247.244C349.844 250.265 352.545 250.374 356.479 255.747C356.318 255.685 355.738 255.435 355.592 255.392C352.81 254.636 344.092 246.975 341.504 248.966C342.891 251.686 347.534 251.033 351.633 256.237C347.066 255.283 343.896 252.037 338.775 252.939C335.797 253.467 328.322 256.834 326.069 254.816C324.746 252.449 326.882 246.527 327.615 243.877Z" fill="#FAF5FC"></path>
<path d="M295.962 202.971L296.854 203.06C297.34 203.523 297.426 203.653 297.247 204.608C295.798 212.352 293.428 221.774 294.406 229.666C295.77 230.156 297.221 230.416 298.633 230.74C306.58 232.567 314.567 234.347 322.276 237.033C325.084 227.392 329.897 218.346 330.832 207.966C330.927 206.914 331.479 205.93 332.074 205.062L332.55 205.16C333.303 208.42 330.162 218.945 329.117 222.629C328.135 225.912 325.392 234.87 323.402 237.4C324.877 238.273 327.63 240.14 327.784 241.943L327.289 242.337C326.542 241.798 322.972 239.193 322.409 238.991C314.259 236.079 302.471 232.963 294.051 231.519C292.294 232.264 289.547 234.061 288.371 233.963L288.128 233.417C288.851 232.131 290.514 231.51 292.016 230.486C291.094 230.016 288.33 231.119 286.508 230.645L286.596 230.047C287.918 228.877 290.828 228.793 292.628 228.627C292.056 220.345 294.106 211.035 295.962 202.971Z" fill="#FAF5FC"></path>
<path d="M349.094 235.426C360.392 233.371 364.261 232.419 371.894 242.426C372.502 243.222 372.521 243.414 372.375 244.336L371.763 244.537C368.54 242.782 365.929 236.373 360.393 237.108C360.4 237.122 366.788 241.783 368.41 243.939C368.563 244.858 368.667 244.469 368.235 245.168C366.966 245.178 362.44 241.649 360.961 241.138C359.113 240.504 353.876 239.245 352.972 241.521C354.124 242.646 359.129 242.145 361.194 243.638L361.016 244.111C359.758 244.843 357.715 244.919 356.204 245.085C350.667 242.343 349.526 241.886 343.431 241.043C344.981 237.64 345.12 236.251 349.094 235.426Z" fill="#FAF5FC"></path>
<path d="M245.058 240.003C245.39 240.01 246.071 240.109 246.291 240.375C249.618 244.388 253.132 248.393 257.243 251.653C267.115 259.595 278.888 264.826 291.401 266.831C293.128 267.118 300.888 267.644 301.444 267.989L301.662 268.956C301.106 269.156 300.105 269.281 299.489 269.268C282.332 268.89 264.789 261.414 252.309 249.699C250.18 247.702 245.143 242.685 245.058 240.003Z" fill="#FAF5FC"></path>
<path d="M383.273 211.941L383.566 212.516C383.474 214.333 381.701 220.817 381.159 222.946L375.381 245.421C374.381 249.289 372.253 259.122 371.039 262.099C370.198 260.918 371.23 256.618 371.72 255.383C375.229 246.55 378.985 218.91 383.273 211.941Z" fill="#FAF5FC"></path>
<path d="M321.872 264.63C323.604 264.011 327.685 263.976 329.649 263.865L343.195 263.095C351.112 262.64 359.219 262 367.149 261.721C368.374 261.678 368.486 261.82 369.373 262.402C368.713 262.651 368.136 262.788 367.429 262.837C352.944 263.816 338.423 264.792 323.918 265.335C323.097 265.365 322.494 265.141 321.872 264.63Z" fill="#FAF5FC"></path>
<path d="M283.829 172.512C291.834 170.799 303.563 178.789 308.467 184.932C309.565 186.307 310.841 188.012 310.603 189.795C309.342 189.724 305.824 184.565 304.123 182.9C300.11 178.636 295.509 175.984 289.795 174.645C287.694 174.152 284.722 174.353 283.829 172.512Z" fill="#FAF5FC"></path>
<path d="M346.189 246.116L346.286 244.909C349.439 246.84 355.469 248.507 356.678 252.459L356.283 252.535C354.57 251.22 353.839 250.224 351.961 249.066C350.523 248.179 347.283 246.905 346.189 246.116Z" fill="#FAF5FC"></path>
<path d="M347.524 243.274C350.275 244.049 355.938 246.51 357.307 248.926L357.146 249.28C355.999 248.709 355.368 248.01 354.373 247.234C352.097 245.458 349.865 244.753 347.092 244.254L347.524 243.274Z" fill="#FAF5FC"></path>
<path d="M368.896 236.404C370.605 236.774 373.417 239.172 373.65 240.921C372.4 240.845 369.903 237.483 368.896 236.404Z" fill="#FAF5FC"></path>
<ellipse cx="324.825" cy="160.54" rx="1.03277" ry="1.38338" transform="rotate(12.736 324.825 160.54)" fill="#091405"></ellipse>
<ellipse cx="334.895" cy="162.555" rx="1.03277" ry="1.35504" transform="rotate(12.736 334.895 162.555)" fill="#091405"></ellipse>
</svg>