<svg width="426" height="414" viewBox="0 0 426 414" fill="none" xmlns="http://www.w3.org/2000/svg">
<rect x="1.92285" width="423.808" height="411.31" rx="205.655" transform="rotate(0.267917 1.92285 0)" fill="#A9FFC9"></rect>
<path d="M260.56 101.26C261.056 95.3913 262.805 94.408 267.202 90.8647C268.731 89.6332 268.287 88.2552 270.975 88.1833C271.793 88.683 271.597 89.354 272.092 89.7356C273.553 90.8627 283.839 85.9417 290.691 96.2535C295.361 97.4853 294.19 101.517 290.391 103.09C291.116 109.948 290.94 113.378 288.369 119.937C287.278 122.245 285.105 126.31 282.703 127.471C282.659 128.586 282.638 129.901 282.546 130.995C280.722 133.351 276.045 137.712 275.391 138.911L275.551 139.188C278.309 138.436 280.563 136.131 282.438 134.094C286.864 142.373 286.195 150.301 285.97 159.17C285.827 164.842 284.878 171.833 288.333 176.187C289.395 177.524 297.201 180.505 299.267 181.74C309.798 180.007 315.945 178.177 324.787 185.733C326.263 181.266 330.509 159.634 332.566 158.733C336.995 156.792 370.635 145.828 373.552 146.315C374.356 146.882 374.726 147.046 374.897 148.086C375.083 149.237 374.785 150.642 374.542 151.768C373.272 157.664 371.432 163.487 369.977 169.342C368.211 176.447 366.744 183.807 364.623 190.804C364.341 191.734 363.963 193.065 363.352 193.826C361.799 195.763 324.061 211.479 320.611 212.064C315.067 213.002 309.048 213.006 303.433 213.39C294.554 213.998 285.636 214.803 276.746 215.195C275.357 215.259 273.228 215.443 272.138 214.414C271.419 213.737 271.115 212.989 271.064 212.043C272.266 209.468 280.305 207.058 283.318 205.919L283.338 204.894C279.66 205.551 278.95 205.466 275.256 204.552C270.523 209.314 253.749 208.072 247.335 207.613C238.232 206.827 226.74 204.979 220.207 198.015C210.75 187.935 211.561 171.404 214.061 158.836C214.563 156.313 215.258 153.351 215.303 150.827L214.876 150.44L214.379 150.655C211.917 154.97 210.722 169.743 210.734 174.81C210.812 207.299 235.937 210.274 262.417 209.615C259.894 213.053 256.495 214.652 254.503 217.582C252.273 221.397 250.196 225.464 248.058 229.332C227.542 266.473 206.148 282.667 162.119 274.215C182.495 263.765 200.464 252.028 218.025 237.278C219.792 235.796 225.198 231.795 225.401 229.719C223.097 229.312 213.451 238.249 211.119 240.118C203.249 246.467 195.038 252.384 186.525 257.845C176.618 264.145 165.093 271.008 154.292 275.529C148.364 278.012 139.939 280.236 133.685 282.26C112.963 288.96 93.978 299.278 78.7312 315.039C76.2472 317.605 72.7848 320.776 68.7804 320.038C60.4494 318.07 65.8798 306.665 67.9384 301.758C73.0867 289.928 80.8106 279.105 90.9834 271.102C95.9514 267.176 101.359 264.236 106.592 260.773C99.0601 262.997 92.9886 266.934 85.776 269.463C84.3688 269.958 80.8927 268.516 81.3015 266.254C82.7105 258.454 90.4137 251.201 95.3856 245.239C98.7149 241.375 104.478 237.276 109.25 235.803C114.835 234.6 123.249 236.294 129.255 236.614C134.783 236.911 138.911 237.018 144.36 236.956C139.113 241.108 133.766 245.134 128.32 249.021C129.14 245.528 132.406 240.012 132.154 238.21L131.609 238.079C128.991 239.755 126.605 247.418 126.012 250.487C121.398 253.979 115.701 256.528 111.228 260.258C110.652 262.483 110.305 264.764 110.189 267.06C109.853 272.931 111.194 282.759 115.24 287.286C116.25 287.584 115.773 287.618 116.718 287.191L116.873 286.675C112.067 279.113 111.473 269.938 112.786 261.318C114.379 260.424 116.108 259.318 117.63 258.297C129.82 250.109 142.803 242.167 154.434 233.235C170.585 220.833 184.393 205.647 195.205 188.393C195.025 175.449 199.759 173.061 205.011 162.274C212.607 146.672 216.391 130.992 232.916 122.19C228.399 111.52 239.231 102.428 248.923 100.874C253.219 100.185 256.34 100.228 260.56 101.26Z" fill="black"></path>
<path d="M260.56 101.26C261.056 95.3913 262.804 94.4081 267.202 90.8647C268.731 89.6332 268.287 88.2553 270.975 88.1833C271.792 88.683 271.597 89.354 272.092 89.7356C273.553 90.8627 283.839 85.9417 290.69 96.2535C295.361 97.4854 294.19 101.517 290.391 103.091C291.116 109.948 290.94 113.378 288.369 119.937C287.763 119.669 287.228 119.685 286.565 119.636C285.935 119.754 281.487 117.149 280.557 116.645C274.074 115.895 274.545 116.148 269.354 118.501C265.53 118.226 267.253 114.144 263.877 112.447C260.953 112.425 261.672 108.572 262.647 106.777L261.701 107.268C261.286 106.872 260.889 106.518 260.46 106.14L260.611 104.469C260.704 103.81 260.588 102.01 260.56 101.26Z" fill="#FAF5FC"></path>
<path d="M260.56 101.26C261.056 95.3913 262.804 94.4081 267.202 90.8647C268.731 89.6332 268.287 88.2553 270.975 88.1833C271.792 88.683 271.597 89.354 272.092 89.7356C273.553 90.8627 283.839 85.9417 290.69 96.2535C295.361 97.4854 294.19 101.517 290.391 103.091L288.733 103.233C281.668 103.109 278.105 99.9803 271.634 99.5223C269.859 99.3968 269.306 104.529 268.686 105.815C268.195 106.833 267.652 107.604 266.87 108.628C265.07 107.329 264.739 107.008 262.647 106.777L261.701 107.268C261.286 106.872 260.889 106.518 260.46 106.14L260.611 104.469C260.704 103.81 260.588 102.01 260.56 101.26Z" fill="#091405"></path>
<path d="M288.733 103.233L290.391 103.091C291.116 109.949 290.94 113.378 288.369 119.938C287.763 119.669 287.228 119.685 286.565 119.636C288.974 113.356 289.291 109.863 288.733 103.233Z" fill="#091405"></path>
<path d="M279.926 109.136L280.164 108.441L280.776 108.268C282.226 109.281 283.076 113.476 282.205 115.223C282.034 115.567 280.93 116.365 280.557 116.644C279.268 115.744 278.68 115.749 278.158 114.602L278.358 114.129C279.263 114.094 279.646 114.129 280.551 114.225C280.952 113.254 280.168 110.335 279.926 109.136Z" fill="#091405"></path>
<path d="M262.682 118.524C262.665 116.142 262.056 114.072 263.877 112.447C267.254 114.144 265.531 118.226 269.355 118.5C274.546 116.147 274.074 115.895 280.557 116.644C281.487 117.148 285.936 119.754 286.565 119.635C287.228 119.684 287.764 119.668 288.369 119.937C287.278 122.244 285.106 126.309 282.704 127.47C280.088 128.931 279.559 128.817 276.824 129.665C269.322 128.56 266.061 124.976 262.682 118.524Z" fill="#091405"></path>
<path d="M273.19 119.322C275.916 119.058 282.421 119.158 283.406 122.301C283.21 123.379 282.663 123.698 281.836 124.46C280.73 123.981 279.15 122.649 278.133 121.86C276.264 122.846 272.99 124.184 271.981 121.336C272.26 120.242 272.388 120.13 273.19 119.322Z" fill="#FAF5FC"></path>
<path d="M260.461 106.14C258.565 106.4 256.037 105.48 254.203 107.286C246.137 115.231 268.888 131.931 268.335 136.672L267.728 137.083L267.084 136.88C262.295 129.383 251.329 120.196 250.791 110.971C250.48 105.654 256.015 104.136 260.612 104.469L260.461 106.14Z" fill="#FAF5FC"></path>
<path d="M262.682 118.524C266.061 124.976 269.322 128.56 276.824 129.665C275.178 132.513 274.089 133.48 271.637 135.603C268.683 130.768 264.012 126.101 262.039 122.286C262.183 120.717 262.305 120.057 262.682 118.524Z" fill="#FAF5FC"></path>
<path d="M283.339 204.895C285.876 203.922 288.315 203.011 291.007 202.509C288.393 203.894 286.061 204.81 283.318 205.92L283.339 204.895Z" fill="#FAF5FC"></path>
<path d="M372.167 148.019C372.781 147.816 372.463 147.878 373.181 148.033C373.59 149.332 363.357 189.283 362.193 192.948C359.612 194.482 352.676 197.253 349.755 198.499L325.245 208.984L324.275 209.266C323.658 208.369 326.149 199.693 326.549 198.091L332.691 173.271C333.762 168.928 335.398 162.998 336.106 158.698C347.874 155.685 360.295 151.26 372.167 148.019Z" fill="#FAF5FC"></path>
<path d="M350.517 172.133C357.814 169.815 355.771 178.558 351.753 182.094C344.913 183.861 346.941 175.455 350.517 172.133Z" fill="black"></path>
<path d="M351.629 173.373C352.522 173.296 352.487 173.261 353.254 173.694C354.614 176.191 352.448 179.117 350.72 180.874C350.225 180.806 350 180.694 349.531 180.532C347.855 178.218 350.037 175.179 351.629 173.373Z" fill="#FAF5FC"></path>
<path d="M315.82 194.912C316.705 194.493 321.158 194.368 322.381 194.661C322.719 196.31 320.132 205.661 319.583 207.854C316.753 207.81 310.766 208.401 307.747 208.61C300.142 209.142 292.534 209.632 284.924 210.077C282.05 210.138 278.468 210.493 275.551 210.701C281.25 208.2 288.628 205.497 294.582 203.076C296.352 203.924 300.417 206.358 302.224 204.833C304.053 203.29 304.735 205.737 307.121 204.609C310.988 202.781 308.057 197.426 312.33 196.233C313.346 195.932 314.766 195.291 315.82 194.912Z" fill="#FAF5FC"></path>
<path d="M278.276 192.075C284.984 190.701 291.391 190.593 298.18 191.305L297.756 192.289L296.955 192.95L296.868 194.159C295.875 194.031 295.762 194.073 294.869 194.532C294.844 194.986 294.706 195.004 295.231 195.3C300.558 198.276 303.261 198.362 307.239 203.702C307.078 203.641 306.496 203.395 306.35 203.354C303.561 202.622 294.779 195.035 292.208 197.047C293.618 199.755 298.255 199.064 302.398 204.232C297.823 203.317 294.626 200.098 289.513 201.043C286.539 201.596 279.092 205.026 276.823 203.027C275.479 200.672 277.566 194.731 278.276 192.075Z" fill="#FAF5FC"></path>
<path d="M246.28 151.44L247.173 151.522C247.662 151.98 247.75 152.109 247.579 153.066C246.195 160.822 243.905 170.263 244.949 178.147C246.317 178.626 247.77 178.873 249.185 179.185C257.147 180.944 265.149 182.657 272.88 185.278C275.607 175.614 280.343 166.527 281.191 156.14C281.277 155.087 281.82 154.099 282.408 153.226L282.884 153.32C283.665 156.573 280.613 167.124 279.6 170.817C278.645 174.108 275.978 183.089 274.01 185.635C275.491 186.496 278.261 188.34 278.43 190.142L277.938 190.539C277.187 190.007 273.595 187.433 273.03 187.235C264.856 184.392 253.041 181.375 244.61 180.003C242.859 180.762 240.127 182.583 238.951 182.495L238.703 181.951C239.416 180.659 241.073 180.024 242.566 178.987C241.64 178.525 238.885 179.651 237.06 179.192L237.143 178.594C238.455 177.413 241.364 177.304 243.163 177.123C242.52 168.846 244.492 159.519 246.28 151.44Z" fill="#FAF5FC"></path>
<path d="M299.683 183.444C310.964 181.294 314.824 180.309 322.541 190.251C323.156 191.043 323.176 191.234 323.038 192.157L322.428 192.364C319.191 190.636 316.525 184.249 310.996 185.03C311.003 185.045 317.43 189.652 319.07 191.794C319.231 192.711 319.331 192.322 318.905 193.024C317.636 193.045 313.081 189.554 311.597 189.056C309.744 188.437 304.497 187.223 303.613 189.507C304.773 190.621 309.774 190.078 311.852 191.554L311.678 192.029C310.426 192.771 308.383 192.864 306.874 193.043C301.314 190.348 300.169 189.901 294.067 189.109C295.588 185.693 295.716 184.303 299.683 183.444Z" fill="#FAF5FC"></path>
<path d="M195.691 188.9C196.023 188.904 196.704 188.998 196.926 189.261C200.287 193.246 203.835 197.222 207.973 200.447C217.912 208.305 229.729 213.436 242.258 215.336C243.987 215.608 251.751 216.069 252.311 216.409L252.537 217.374C251.983 217.579 250.982 217.713 250.367 217.705C233.207 217.471 215.601 210.144 203.023 198.534C200.877 196.555 195.798 191.581 195.691 188.9Z" fill="#FAF5FC"></path>
<path d="M333.664 159.671L333.962 160.244C333.884 162.061 332.167 168.56 331.642 170.694L326.055 193.217C325.087 197.093 323.042 206.944 321.854 209.93C321.003 208.757 321.998 204.448 322.478 203.209C325.912 194.346 329.435 166.676 333.664 159.671Z" fill="#FAF5FC"></path>
<path d="M272.709 212.878C274.436 212.245 278.516 212.175 280.479 212.047L294.019 211.163C301.931 210.641 310.033 209.933 317.96 209.587C319.185 209.533 319.298 209.674 320.19 210.249C319.531 210.503 318.955 210.645 318.249 210.7C303.773 211.801 289.261 212.9 274.76 213.566C273.94 213.603 273.335 213.384 272.709 212.878Z" fill="#FAF5FC"></path>
<path d="M233.889 121.083C241.88 119.303 253.675 127.194 258.632 133.295C259.741 134.66 261.031 136.354 260.808 138.139C259.546 138.08 255.985 132.95 254.27 131.299C250.221 127.07 245.598 124.457 239.874 123.165C237.768 122.69 234.798 122.917 233.889 121.083Z" fill="#FAF5FC"></path>
<path d="M296.868 194.158L296.955 192.95C300.125 194.855 306.168 196.47 307.41 200.412L307.017 200.491C305.292 199.191 304.553 198.201 302.665 197.059C301.22 196.184 297.969 194.938 296.868 194.158Z" fill="#FAF5FC"></path>
<path d="M298.18 191.305C300.938 192.057 306.621 194.47 308.01 196.874L307.853 197.23C306.701 196.669 306.064 195.975 305.063 195.207C302.771 193.45 300.533 192.764 297.757 192.289L298.18 191.305Z" fill="#FAF5FC"></path>
<path d="M319.492 184.256C321.205 184.611 324.037 186.985 324.285 188.732C323.034 188.666 320.509 185.326 319.492 184.256Z" fill="#FAF5FC"></path>
<ellipse cx="274.783" cy="108.765" rx="1.03277" ry="1.38338" transform="rotate(12.2521 274.783 108.765)" fill="#091405"></ellipse>
<ellipse cx="284.87" cy="110.697" rx="1.03277" ry="1.35504" transform="rotate(12.2521 284.87 110.697)" fill="#091405"></ellipse>
</svg>