<svg width="426" height="414" viewBox="0 0 426 414" fill="none" xmlns="http://www.w3.org/2000/svg">
<rect x="1.92334" width="423.808" height="411.31" rx="205.655" transform="rotate(0.267917 1.92334 0)" fill="#FBFFC9"></rect>
<path d="M260.56 101.26C261.057 95.3908 262.805 94.4076 267.203 90.8642C268.731 89.6327 268.288 88.2547 270.976 88.1828C271.793 88.6825 271.598 89.3535 272.092 89.7351C273.553 90.8622 283.839 85.9412 290.691 96.253C295.361 97.4849 294.191 101.517 290.391 103.09C291.117 109.948 290.94 113.377 288.369 119.937C287.278 122.244 285.106 126.309 282.704 127.47C282.659 128.586 282.638 129.9 282.546 130.994C280.723 133.351 276.045 137.711 275.392 138.91L275.551 139.188C278.31 138.435 280.563 136.13 282.438 134.093C286.864 142.372 286.196 150.3 285.971 159.17C285.827 164.842 284.879 171.832 288.334 176.186C289.395 177.523 297.201 180.505 299.268 181.739C309.798 180.006 315.946 178.176 324.787 185.732C326.264 181.266 330.51 159.633 332.566 158.732C336.995 156.792 370.635 145.827 373.552 146.314C374.356 146.881 374.727 147.046 374.897 148.086C375.084 149.237 374.785 150.641 374.543 151.768C373.272 157.663 371.432 163.487 369.977 169.342C368.212 176.447 366.744 183.807 364.623 190.804C364.341 191.733 363.964 193.064 363.353 193.826C361.8 195.762 324.062 211.479 320.611 212.063C315.068 213.002 309.049 213.005 303.434 213.39C294.555 213.998 285.636 214.803 276.746 215.194C275.357 215.259 273.229 215.443 272.138 214.413C271.419 213.736 271.115 212.988 271.065 212.042C272.266 209.467 280.305 207.058 283.318 205.919L283.339 204.894C279.66 205.55 278.95 205.465 275.256 204.552C270.523 209.314 253.749 208.072 247.336 207.612C238.232 206.827 226.741 204.978 220.207 198.014C210.751 187.934 211.561 171.403 214.061 158.835C214.563 156.313 215.259 153.35 215.303 150.827L214.876 150.44L214.379 150.654C211.918 154.969 210.723 169.743 210.735 174.81C210.812 207.299 235.937 210.274 262.418 209.615C259.894 213.053 256.496 214.651 254.503 217.581C252.274 221.396 250.196 225.464 248.059 229.331C227.542 266.472 206.149 282.667 162.12 274.215C182.495 263.765 200.465 252.027 218.025 237.278C219.793 235.796 225.199 231.794 225.401 229.718C223.097 229.312 213.451 238.249 211.12 240.117C203.249 246.467 195.039 252.383 186.526 257.844C176.618 264.144 165.094 271.007 154.292 275.529C148.365 278.011 139.939 280.235 133.686 282.26C112.964 288.96 93.9785 299.278 78.7317 315.038C76.2477 317.605 72.7853 320.776 68.7809 320.037C60.4499 318.07 65.8803 306.665 67.9389 301.757C73.0872 289.928 80.8111 279.105 90.9839 271.102C95.9519 267.175 101.359 264.236 106.593 260.773C99.0605 262.997 92.9891 266.933 85.7765 269.462C84.3693 269.957 80.8932 268.515 81.302 266.254C82.711 258.453 90.4142 251.2 95.3861 245.238C98.7154 241.375 104.478 237.276 109.25 235.803C114.835 234.599 123.249 236.293 129.255 236.613C134.784 236.911 138.911 237.018 144.36 236.955C139.114 241.108 133.766 245.133 128.32 249.021C129.14 245.527 132.406 240.011 132.154 238.21L131.61 238.079C128.992 239.754 126.606 247.417 126.012 250.486C121.399 253.979 115.701 256.527 111.228 260.258C110.653 262.482 110.306 264.764 110.19 267.059C109.853 272.93 111.195 282.758 115.24 287.286C116.251 287.583 115.774 287.618 116.718 287.191L116.873 286.675C112.068 279.113 111.473 269.937 112.787 261.318C114.38 260.423 116.109 259.318 117.631 258.296C129.821 250.109 142.804 242.167 154.435 233.235C170.586 220.832 184.393 205.647 195.205 188.393C195.025 175.448 199.76 173.06 205.011 162.274C212.608 146.672 216.391 130.992 232.916 122.19C228.4 111.519 239.231 102.428 248.923 100.874C253.219 100.185 256.34 100.227 260.56 101.26Z" fill="black"></path>
<path d="M260.56 101.26C261.056 95.3909 262.805 94.4076 267.202 90.8643C268.731 89.6327 268.288 88.2548 270.976 88.1828C271.793 88.6825 271.597 89.3535 272.092 89.7351C273.553 90.8622 283.839 85.9412 290.691 96.253C295.361 97.4849 294.191 101.517 290.391 103.09C291.117 109.948 290.94 113.377 288.369 119.937C287.764 119.668 287.228 119.685 286.565 119.635C285.936 119.754 281.487 117.148 280.557 116.644C274.074 115.895 274.546 116.147 269.355 118.5C265.531 118.226 267.254 114.144 263.877 112.447C260.953 112.425 261.672 108.572 262.648 106.777L261.702 107.268C261.287 106.872 260.89 106.517 260.461 106.14L260.612 104.469C260.704 103.809 260.589 102.01 260.56 101.26Z" fill="#FAF5FC"></path>
<path d="M260.56 101.26C261.056 95.3909 262.805 94.4076 267.202 90.8643C268.731 89.6327 268.288 88.2548 270.976 88.1828C271.793 88.6825 271.597 89.3535 272.092 89.7351C273.553 90.8622 283.839 85.9412 290.691 96.253C295.361 97.4849 294.191 101.517 290.391 103.09L288.733 103.232C281.668 103.109 278.105 99.9798 271.635 99.5218C269.86 99.3964 269.307 104.528 268.686 105.815C268.195 106.832 267.653 107.603 266.871 108.628C265.071 107.329 264.74 107.007 262.648 106.777L261.702 107.268C261.287 106.872 260.89 106.517 260.461 106.14L260.612 104.469C260.704 103.809 260.589 102.01 260.56 101.26Z" fill="#091405"></path>
<path d="M288.734 103.232L290.391 103.09C291.117 109.948 290.941 113.377 288.37 119.937C287.764 119.668 287.228 119.684 286.565 119.635C288.974 113.355 289.291 109.862 288.734 103.232Z" fill="#091405"></path>
<path d="M279.926 109.136L280.164 108.441L280.776 108.268C282.226 109.281 283.076 113.476 282.205 115.223C282.034 115.567 280.93 116.365 280.557 116.644C279.268 115.744 278.68 115.749 278.158 114.602L278.358 114.129C279.263 114.094 279.646 114.129 280.551 114.225C280.952 113.254 280.168 110.335 279.926 109.136Z" fill="#091405"></path>
<path d="M262.682 118.524C262.665 116.142 262.056 114.072 263.877 112.447C267.254 114.144 265.531 118.226 269.355 118.5C274.546 116.147 274.074 115.895 280.557 116.644C281.487 117.148 285.936 119.754 286.565 119.635C287.228 119.684 287.764 119.668 288.369 119.937C287.278 122.244 285.106 126.309 282.704 127.47C280.088 128.931 279.559 128.817 276.824 129.665C269.322 128.56 266.061 124.976 262.682 118.524Z" fill="#091405"></path>
<path d="M273.191 119.321C275.917 119.058 282.422 119.157 283.407 122.3C283.211 123.379 282.664 123.698 281.837 124.459C280.731 123.98 279.151 122.648 278.134 121.86C276.265 122.846 272.991 124.183 271.982 121.336C272.261 120.241 272.389 120.129 273.191 119.321Z" fill="#FAF5FC"></path>
<path d="M260.461 106.14C258.565 106.399 256.037 105.48 254.203 107.286C246.137 115.23 268.888 131.931 268.335 136.671L267.728 137.082L267.084 136.88C262.295 129.383 251.329 120.195 250.791 110.97C250.48 105.653 256.015 104.135 260.612 104.469L260.461 106.14Z" fill="#FAF5FC"></path>
<path d="M262.682 118.524C266.062 124.976 269.323 128.56 276.825 129.665C275.178 132.513 274.089 133.48 271.638 135.603C268.684 130.768 264.012 126.101 262.039 122.286C262.184 120.717 262.306 120.057 262.682 118.524Z" fill="#FAF5FC"></path>
<path d="M283.339 204.894C285.877 203.921 288.316 203.01 291.008 202.508C288.393 203.893 286.061 204.809 283.318 205.919L283.339 204.894Z" fill="#FAF5FC"></path>
<path d="M372.167 148.019C372.782 147.816 372.463 147.878 373.182 148.033C373.591 149.332 363.357 189.283 362.194 192.948C359.613 194.482 352.677 197.253 349.755 198.499L325.245 208.984L324.275 209.266C323.658 208.369 326.149 199.693 326.549 198.091L332.691 173.271C333.763 168.928 335.399 162.998 336.107 158.698C347.874 155.685 360.295 151.26 372.167 148.019Z" fill="#FAF5FC"></path>
<path d="M350.518 172.132C357.815 169.814 355.772 178.557 351.754 182.094C344.914 183.861 346.942 175.454 350.518 172.132Z" fill="black"></path>
<path d="M351.63 173.372C352.523 173.295 352.488 173.261 353.255 173.694C354.615 176.19 352.448 179.117 350.721 180.873C350.226 180.806 350.001 180.694 349.532 180.531C347.856 178.217 350.038 175.178 351.63 173.372Z" fill="#FAF5FC"></path>
<path d="M315.821 194.911C316.706 194.493 321.158 194.367 322.382 194.661C322.72 196.31 320.133 205.66 319.583 207.854C316.754 207.81 310.766 208.401 307.747 208.61C300.142 209.141 292.535 209.631 284.924 210.077C282.051 210.138 278.469 210.492 275.551 210.7C281.251 208.2 288.628 205.496 294.583 203.076C296.352 203.924 300.418 206.357 302.225 204.832C304.054 203.29 304.736 205.736 307.121 204.608C310.989 202.781 308.058 197.426 312.33 196.233C313.347 195.932 314.766 195.29 315.821 194.911Z" fill="#FAF5FC"></path>
<path d="M278.277 192.075C284.985 190.7 291.392 190.593 298.181 191.304L297.757 192.288L296.956 192.95L296.869 194.158C295.876 194.031 295.763 194.073 294.87 194.531C294.845 194.986 294.707 195.004 295.232 195.299C300.559 198.276 303.262 198.361 307.24 203.701C307.079 203.641 306.497 203.395 306.35 203.354C303.562 202.621 294.78 195.034 292.209 197.047C293.618 199.755 298.256 199.063 302.399 204.232C297.824 203.316 294.627 200.098 289.514 201.043C286.54 201.596 279.093 205.026 276.824 203.027C275.48 200.671 277.567 194.731 278.277 192.075Z" fill="#FAF5FC"></path>
<path d="M246.28 151.439L247.173 151.521C247.662 151.979 247.75 152.108 247.579 153.065C246.195 160.821 243.905 170.262 244.949 178.146C246.317 178.625 247.77 178.872 249.185 179.184C257.147 180.944 265.149 182.656 272.88 185.277C275.607 175.613 280.343 166.526 281.191 156.139C281.277 155.086 281.82 154.098 282.408 153.225L282.884 153.319C283.665 156.572 280.613 167.123 279.6 170.816C278.645 174.107 275.978 183.088 274.01 185.634C275.491 186.495 278.261 188.339 278.43 190.141L277.938 190.538C277.187 190.006 273.595 187.432 273.03 187.234C264.856 184.391 253.041 181.374 244.61 180.002C242.859 180.761 240.127 182.582 238.951 182.494L238.703 181.95C239.416 180.658 241.073 180.023 242.566 178.986C241.64 178.524 238.885 179.65 237.06 179.191L237.143 178.593C238.455 177.412 241.364 177.303 243.163 177.122C242.52 168.845 244.492 159.518 246.28 151.439Z" fill="#FAF5FC"></path>
<path d="M299.684 183.443C310.965 181.293 314.825 180.309 322.542 190.25C323.157 191.042 323.177 191.233 323.039 192.156L322.429 192.363C319.192 190.635 316.526 184.248 310.997 185.029C311.004 185.044 317.431 189.651 319.071 191.793C319.232 192.71 319.332 192.321 318.906 193.023C317.637 193.044 313.082 189.553 311.598 189.055C309.745 188.436 304.498 187.222 303.614 189.506C304.774 190.62 309.775 190.077 311.853 191.553L311.679 192.028C310.427 192.77 308.384 192.863 306.875 193.042C301.315 190.347 300.17 189.9 294.068 189.108C295.589 185.692 295.716 184.302 299.684 183.443Z" fill="#FAF5FC"></path>
<path d="M195.691 188.899C196.023 188.903 196.704 188.997 196.926 189.26C200.287 193.245 203.835 197.221 207.973 200.446C217.912 208.304 229.729 213.435 242.258 215.335C243.987 215.607 251.751 216.068 252.311 216.408L252.537 217.373C251.983 217.578 250.982 217.712 250.367 217.704C233.207 217.47 215.601 210.143 203.023 198.533C200.877 196.554 195.798 191.58 195.691 188.899Z" fill="#FAF5FC"></path>
<path d="M333.664 159.671L333.962 160.243C333.884 162.061 332.167 168.559 331.642 170.693L326.055 193.216C325.087 197.092 323.042 206.943 321.854 209.93C321.003 208.756 321.998 204.448 322.478 203.208C325.912 194.346 329.435 166.676 333.664 159.671Z" fill="#FAF5FC"></path>
<path d="M272.71 212.877C274.437 212.244 278.517 212.174 280.48 212.046L294.02 211.162C301.932 210.64 310.034 209.932 317.961 209.586C319.186 209.532 319.299 209.673 320.191 210.248C319.532 210.502 318.956 210.644 318.25 210.699C303.774 211.8 289.262 212.899 274.761 213.565C273.941 213.602 273.336 213.383 272.71 212.877Z" fill="#FAF5FC"></path>
<path d="M233.89 121.083C241.881 119.303 253.676 127.193 258.633 133.295C259.742 134.66 261.032 136.354 260.809 138.139C259.547 138.079 255.986 132.949 254.271 131.299C250.222 127.069 245.599 124.456 239.875 123.165C237.769 122.69 234.799 122.916 233.89 121.083Z" fill="#FAF5FC"></path>
<path d="M296.869 194.158L296.956 192.95C300.126 194.855 306.169 196.47 307.411 200.412L307.018 200.491C305.293 199.191 304.554 198.201 302.666 197.059C301.221 196.184 297.97 194.938 296.869 194.158Z" fill="#FAF5FC"></path>
<path d="M298.181 191.304C300.938 192.056 306.622 194.469 308.011 196.873L307.853 197.229C306.702 196.668 306.064 195.975 305.063 195.207C302.772 193.449 300.534 192.763 297.757 192.288L298.181 191.304Z" fill="#FAF5FC"></path>
<path d="M319.493 184.255C321.206 184.61 324.038 186.984 324.286 188.731C323.035 188.665 320.51 185.325 319.493 184.255Z" fill="#FAF5FC"></path>
<ellipse cx="274.784" cy="108.765" rx="1.03277" ry="1.38338" transform="rotate(12.2521 274.784 108.765)" fill="#091405"></ellipse>
<ellipse cx="284.871" cy="110.696" rx="1.03277" ry="1.35504" transform="rotate(12.2521 284.871 110.696)" fill="#091405"></ellipse>
</svg>