<svg width="462" height="454" viewBox="0 0 462 454" fill="none" xmlns="http://www.w3.org/2000/svg">
<rect x="104.068" width="373" height="362" rx="181" transform="rotate(16.7072 104.068 0)" fill="#C9FFDD"></rect>
<path fill-rule="evenodd" clip-rule="evenodd" d="M165.982 294.243C166.847 293.681 167.057 293.742 179.355 298.078C185.944 300.399 192.405 302.573 193.71 302.907C196.501 303.624 198.745 303.863 202.605 303.86C204.155 303.859 205.875 303.865 206.429 303.871C206.982 303.879 209.388 303.665 211.775 303.396C219.378 302.542 223.647 301.552 227.688 299.708C229.26 298.99 230.884 298.356 231.298 298.3C232.773 298.095 234.164 299.029 234.347 300.349C234.49 301.379 233.947 302.728 233.184 303.238C230.504 305.029 226.394 306.428 220.304 307.624C218.83 307.915 210.682 308.928 209 309.03C206.628 309.176 206.118 309.192 204.328 309.191C196.485 309.181 191.289 308.133 180.83 304.45C174.407 302.187 168.813 299.931 166.796 298.792C165.109 297.837 164.715 297.011 165.243 295.54C165.454 294.955 165.786 294.372 165.982 294.243Z" fill="#1C1C1C"></path>
<path fill-rule="evenodd" clip-rule="evenodd" d="M305.043 241.302C302.932 246.981 302.796 247.239 301.879 248.173C300.721 249.349 299.223 250.368 297.162 251.379C295.408 252.24 294.277 252.562 291.275 253.057C288.05 253.588 285.932 253.618 281.331 253.2C280.469 253.122 279.645 253.083 279.502 253.114C279.316 253.154 278.589 255.133 277.054 259.762C274.936 266.152 268.732 282.839 265.57 290.652C264.713 292.763 263.158 296.623 262.114 299.227C259.69 305.267 258.356 308.322 256.146 312.884C253.503 318.342 251.263 322.372 249.29 325.214C246.315 329.503 241.162 335.427 238.756 337.321C233.789 341.234 223.747 347.051 219.766 348.322C214.441 350.022 206.528 351.016 201.78 350.581C201.42 350.548 200.584 350.479 199.921 350.425C196.421 350.152 192.776 349.196 185.679 346.691C177.986 343.976 174.05 342.26 170.281 339.981C169.516 339.518 168.512 338.911 168.054 338.633C167.596 338.356 166.838 337.911 166.376 337.647C159.278 333.602 150.528 326.745 145.439 321.241C143.169 318.785 139.095 313.462 138.607 312.316C138.573 312.236 138.131 311.477 137.626 310.63C135.132 306.452 133.159 301.256 132.828 297.991C132.607 295.817 132.785 292.226 133.235 289.809C133.685 287.376 140.586 267.798 141.635 265.978C143.34 263.012 145.711 259.098 146.521 257.906C149.543 253.46 150.755 251.825 153.33 248.711C156.075 245.395 157.615 244.276 158.932 244.648C159.336 244.761 159.738 244.822 159.824 244.781C159.909 244.738 160.165 243.768 160.392 242.621C160.618 241.476 161.784 237.44 162.983 233.653C168.523 216.164 169.222 213.574 170.34 206.414C170.851 203.145 171.648 196.145 172.066 191.262C172.335 188.144 172.808 185.015 173.587 181.216C174.737 175.61 175.977 171.71 178.929 164.412C183.06 154.191 185.319 149.208 187.291 145.971C188.385 144.17 188.993 143.869 190.481 144.394C191.352 144.701 191.604 144.893 191.873 145.454C192.427 146.614 192.467 146.494 188.237 156.211C183.042 168.143 181.569 171.772 180.416 175.468C179.412 178.698 179.165 179.73 178.425 183.823C177.915 186.64 177.168 192.003 176.752 195.841C176.627 196.973 176.485 198.239 176.432 198.656C176.38 199.072 176.238 200.339 176.115 201.471C175.865 203.789 175.82 204.174 175.442 207.2C175.294 208.386 175.091 209.834 174.993 210.419C174.14 215.457 173.662 217.548 172.08 223.126C169.904 230.791 169.207 233.292 168.61 235.56C168.261 236.881 167.424 239.528 166.749 241.445C165.429 245.187 165.407 245.427 166.371 245.767C166.691 245.88 167.082 246.286 167.327 246.757C168.18 248.393 166.99 249.809 162.564 252.418C159.881 254 159.102 254.088 157.546 252.992C157.262 252.793 156.98 252.592 156.697 252.393C155.833 253.503 154.969 254.612 154.105 255.721C150.717 260.074 149.963 261.153 147.912 264.588C145.495 268.633 145.003 269.797 141.53 279.686C137.96 289.856 137.842 290.305 137.794 293.922C137.72 299.41 138.445 301.647 142.798 309.369C144.41 312.232 148.445 317.3 151.317 320.069C153.788 322.453 158.648 326.621 161.588 328.875C165.22 331.665 165.376 331.778 166.51 332.477C167.018 332.792 168.14 333.487 169.003 334.025C171.236 335.414 174.346 337.078 177.753 338.707C178.78 339.197 183.268 340.886 187.73 342.459C195.662 345.256 195.899 345.326 198.586 345.704C204.031 346.468 209.358 346.124 215.277 344.625C218.963 343.691 220.495 343.069 224.285 340.968C233.185 336.032 237.296 332.807 241.359 327.582C245.532 322.213 249.505 315.461 252.98 307.827C257.605 297.669 263.39 282.818 269.757 264.756C273.748 253.429 274.28 251.799 274.29 250.853C274.305 249.482 274.908 248.594 276.365 247.802C277.606 247.125 279.028 246.992 281.767 247.289C285.002 247.641 285.433 247.671 287.8 247.695C292.03 247.741 295.258 246.754 297.288 244.791C298.244 243.867 298.355 243.665 299.138 241.444C300.846 236.6 301.67 231.174 301.075 228.671C299.875 223.614 298.105 221.44 293.989 219.97C292.397 219.401 291.818 219.282 291.155 219.387C290.006 219.567 287.494 220.862 285.735 222.181C285.245 222.547 284.756 222.914 284.266 223.281C283.983 224.152 283.699 225.023 283.416 225.895C282.948 227.333 282.594 228.694 282.63 228.923C282.664 229.151 282.519 229.832 282.307 230.433C281.954 231.434 281.843 231.557 280.995 231.9C279.38 232.546 277.927 231.59 277.789 229.787C277.699 228.643 278.346 225.728 279.272 223.096C279.814 221.552 280.046 221.151 280.873 220.298C282.505 218.621 286.825 215.832 289.338 214.834C290.943 214.198 292.086 214.276 295.385 215.25C298.789 216.255 300.254 217.05 302.074 218.88C303.2 220.01 303.677 220.738 304.796 223.035C305.946 225.394 306.195 226.145 306.429 227.944C306.857 231.232 306.777 232.547 305.901 236.615C305.406 238.904 305.473 239.652 306.122 239.102C306.325 238.93 306.82 238.623 307.223 238.421C308.126 237.965 309.092 238.26 310.949 239.557C312.344 240.53 312.998 240.833 313.259 240.623C313.354 240.547 313.522 239.973 313.632 239.348C313.743 238.721 313.963 237.495 314.122 236.623C314.418 234.999 314.686 232.323 314.649 231.369C314.636 231.074 314.618 230.223 314.609 229.477C314.6 228.731 314.567 227.656 314.535 227.087C314.504 226.518 314.472 225.849 314.464 225.598C314.238 219.337 313.806 216.467 312.077 209.712C311.195 206.262 310.782 205.218 309.419 202.978C308.86 202.06 308.385 200.994 308.365 200.61C308.309 199.556 308.965 198.594 310.078 198.101C310.964 197.708 311.1 197.712 312.286 198.175C312.981 198.445 313.624 198.631 313.716 198.588C314.09 198.408 314.859 191.247 314.867 187.873C314.869 185.579 314.989 175.362 315.061 171.097C315.12 167.577 315.378 164.992 315.866 163.033C316.067 162.227 316.205 161.455 316.172 161.317C316.138 161.177 315.825 160.782 315.474 160.436C314.605 159.58 314.235 158.005 313.533 152.155C313.007 147.784 312.855 147.072 312.06 145.261C311.083 143.037 308.635 138.793 306.883 136.283C305.501 134.304 302.978 131.612 301.204 130.225C300.477 129.656 298.975 128.452 297.869 127.552C295.285 125.447 294.925 125.167 292.037 123.02C290.711 122.036 289.19 120.895 288.653 120.484C288.116 120.073 287.354 119.508 286.956 119.23C286.559 118.951 285.734 118.348 285.121 117.889C283.173 116.43 276.256 111.947 274.812 111.209C274.341 110.967 273.444 110.492 272.82 110.153C270.126 108.688 264.688 106.64 259.603 105.176C256.849 104.383 254.356 103.695 254.062 103.648C253.768 103.599 252.73 103.391 251.749 103.183C250.769 102.975 249.535 102.739 249.007 102.66C248.479 102.581 247.47 102.421 246.768 102.306C244.799 101.983 242.355 101.647 241.506 101.582C241.083 101.55 239.756 101.437 238.555 101.332C233.72 100.907 228.783 101.078 222.276 101.897C214.081 102.928 203.908 105.407 203.536 106.464C203.456 106.69 201.421 108.783 199.014 111.114C194.261 115.718 193.213 116.851 192.632 118.021C192.422 118.443 191.783 119.687 191.209 120.785C188.673 125.642 188.27 126.559 186.733 131.027C185.858 133.567 184.894 136.57 184.587 137.7C183.794 140.627 184.013 140.646 187.99 137.999C190.893 136.067 197.18 132.152 203.027 128.633C206.465 126.564 209.452 125.168 212.362 124.271C219.535 122.058 225.673 121.234 230.58 121.824C234.392 122.283 235.911 123.352 235.809 125.506C235.773 126.207 235.663 126.43 235.03 127.056C234.075 128.003 234.045 128.126 234.644 128.663C235.663 129.578 235.568 130.16 233.288 137.085C229.92 147.323 229.401 149.343 230.005 149.858C230.303 150.111 230.652 149.882 231.319 148.999C233.726 145.807 241.567 140.337 246.869 138.153C253.54 135.402 260.711 133.435 263.887 133.483C265.311 133.504 266.153 133.997 266.566 135.054C266.882 135.858 266.866 135.941 265.737 139.633C265.105 141.701 264.417 144.144 264.209 145.061C264 145.978 263.68 147.359 263.498 148.13C263.086 149.867 263.267 150.285 264.34 150.072C265.373 149.868 267.585 149.605 269.545 149.453C270.437 149.383 271.897 149.263 272.791 149.186C280.014 148.561 284.566 148.543 287.239 149.13C288.062 149.311 288.369 149.483 288.777 149.997C289.058 150.349 289.296 150.869 289.309 151.152C289.319 151.435 288.779 153.55 288.105 155.851C286.032 162.922 284.872 167.221 283.634 172.399C283.389 173.427 282.949 175.248 282.658 176.445C281.879 179.656 281.07 183.26 280.28 187.033C280.104 187.869 279.814 189.261 279.633 190.126C278.12 197.347 277.563 200.433 276.768 206.003C275.53 214.675 275.562 214.55 271.563 226.232C267.107 239.246 264.326 246.092 261.985 249.806C260.19 252.656 252.479 261.708 249.406 264.576C247.335 266.507 243.489 269.154 241.862 269.769C240.552 270.262 238.489 270.282 234.641 269.835C233.334 269.685 231.646 269.702 230.008 269.885C224.646 270.482 220.612 270.076 212.993 268.168C208.996 267.166 202.749 265.011 201.884 264.337C201.553 264.08 201.156 263.636 201.002 263.35C200.846 263.066 200.579 262.782 200.407 262.722C200.236 262.662 199.087 262.781 197.852 262.987C191.287 264.083 188.132 263.844 182.217 261.8C178.701 260.584 177.724 260.091 175.419 258.36C172.182 255.931 169.329 251.892 169.066 249.368C169.02 248.944 168.831 248.298 168.64 247.932C168.526 247.712 168.411 247.489 168.298 247.268C168.86 245.674 169.422 244.08 169.984 242.486C171.928 236.971 172.783 235.188 175.547 230.878C176.754 229 178.882 226.139 179.776 225.194C180.052 224.903 180.587 224.318 180.966 223.895C182.494 222.178 185.428 219.414 186.953 218.248C188.916 216.749 198.799 210.579 201.065 209.437C202.821 208.552 203.883 208.335 204.823 208.666C205.562 208.927 206.126 209.79 206.178 210.736C206.25 212.065 205.499 212.692 198.988 216.747C194.769 219.378 188.321 223.915 186.316 225.669C182.784 228.758 179.171 233.441 176.898 237.884C175.466 240.68 173.864 245.237 173.798 246.695C173.7 248.921 174.306 250.35 176.191 252.341C178.544 254.83 179.512 255.451 182.893 256.641C187.441 258.242 189.791 258.621 193.735 258.386C199.163 258.064 200.939 257.29 207.325 252.469C209.995 250.452 210.854 250.116 211.947 250.656C214.028 251.687 213.928 253.978 211.711 256.019C211.073 256.607 209.801 257.629 208.882 258.294C207.964 258.956 207.167 259.634 207.11 259.796C207.019 260.053 207.669 260.329 211.618 261.721C216.653 263.497 219.281 264.189 222.116 264.489C224.698 264.76 227.8 264.775 228.916 264.52C230.368 264.19 230.303 264.187 235.846 264.662C239.135 264.944 240.82 264.635 242.695 263.41C243.892 262.627 247.072 259.675 248.522 258.003C248.947 257.511 249.546 256.842 249.852 256.515C256.547 249.379 258.798 245.998 262.483 237.537C263.618 234.932 264.53 232.389 266.284 226.944C267.551 223.005 268.967 218.9 269.43 217.825C270.228 215.969 270.259 215.824 270.04 214.968C269.814 214.072 270.06 211.402 270.622 208.676C270.779 207.926 271.146 206.029 271.44 204.461C271.733 202.894 272.225 200.331 272.533 198.768C272.839 197.204 273.153 195.592 273.233 195.187C273.832 192.12 274.336 189.613 274.583 188.458C275.044 186.308 275.555 183.87 275.879 182.273C276.162 180.876 276.46 179.515 277.367 175.48C277.877 173.211 278.999 168.54 279.736 165.621C280.051 164.37 280.961 161.271 281.756 158.734C283.408 153.469 283.459 153.905 281.167 153.72C277.336 153.411 271.785 153.872 266.594 154.931C264.175 155.423 263.298 155.715 262.315 156.35C261.633 156.789 261.098 157.253 261.128 157.381C261.154 157.509 261.78 157.83 262.516 158.094C264.332 158.745 265.617 159.616 267.216 161.281C268.903 163.036 269.261 163.988 268.766 165.39C268.47 166.23 268.285 166.449 267.582 166.796C267.122 167.022 266.399 167.2 265.974 167.192C265.286 167.178 265.129 167.087 264.537 166.358C264.171 165.907 263.707 165.275 263.506 164.952C262.666 163.606 255.913 160.726 253.199 160.557C252.496 160.513 250.152 160.616 247.988 160.785C244.501 161.057 243.987 161.045 243.49 160.68C241.701 159.367 242.274 156.867 244.473 156.385C245.383 156.185 251.03 156.238 255.405 156.486C256.281 156.536 257.075 156.513 257.169 156.436C257.264 156.359 257.276 155.936 257.195 155.495C256.998 154.432 257.153 151.388 257.526 149.009C257.691 147.952 258.343 145.447 258.971 143.439C260.091 139.874 260.109 139.786 259.698 139.572C258.811 139.11 251.942 141.37 246.725 143.843C242.395 145.892 240.439 147.259 236.866 150.73C234.302 153.22 233.487 154.396 232.597 156.88C231.774 159.183 231.252 159.915 230.107 160.374C228.68 160.946 227.514 160.333 226.768 158.616C226.013 156.877 224.761 151.195 224.792 149.651C224.811 148.688 224.318 148.408 223.587 148.967C223.04 149.383 221.524 149.371 220.88 148.944C220.661 148.8 220.011 148.062 219.434 147.304C217.84 145.21 214.827 143.506 212.92 143.62C212.242 143.661 209.624 144.406 206.724 145.383C205.344 145.849 204.303 145.761 203.593 145.119C202.48 144.113 202.587 142.302 203.809 141.441C204.138 141.21 205.456 140.704 206.739 140.316C208.022 139.927 209.641 139.434 210.336 139.218C213.261 138.312 214.636 138.417 218.239 139.818C220.091 140.539 220.814 140.921 221.553 141.569C222.574 142.465 223.84 143.927 224.473 144.941C225.02 145.817 225.397 145.609 225.541 144.352C225.602 143.81 226.653 140.541 227.976 136.788C230.341 130.069 230.912 128.833 231.927 128.226C232.349 127.974 232.074 127.547 231.317 127.275C229.892 126.763 224.849 126.857 220.895 127.471C215.362 128.329 209.43 130.57 203.693 133.967C202.449 134.705 200.899 135.62 200.249 136.001C198.012 137.313 188.676 143.497 188.366 143.873C188.248 144.018 187.866 144.275 187.52 144.446C186.511 144.944 184.366 146.864 181.184 150.122C179.448 151.9 178.422 152.3 176.938 151.777C175.64 151.319 175.18 150.671 175.029 149.086C174.908 147.821 174.936 147.711 176.473 143.395C179.28 135.512 183.942 124.422 186.941 118.492C188.969 114.481 191.011 111.692 194.16 108.624C196.012 106.82 196.178 106.597 196.24 105.86C196.339 104.66 196.937 104.144 199.628 102.937C206.148 100.013 213.26 98.0732 221.021 97.102C227.892 96.2428 233.476 96.0772 238.428 96.585C243.019 97.0564 243.117 97.0709 251.692 98.5553C255.38 99.1942 264.33 101.539 267.975 102.822C270.894 103.849 275.626 106.096 278.486 107.812C281.015 109.33 281.355 109.542 282.451 110.297C283.874 111.275 286.685 113.187 287.263 113.571C287.515 113.737 288.722 114.619 289.949 115.531C291.176 116.444 292.787 117.624 293.527 118.154C294.268 118.684 296.627 120.475 298.766 122.135C308.044 129.333 308.834 130.093 312.39 135.219C316.027 140.464 317.28 143.118 318.525 148.227C319.278 151.313 320.25 158.584 320.004 159.282C319.933 159.481 320.085 159.887 320.341 160.184C320.956 160.898 321.077 161.634 320.883 163.468C320.667 165.504 320.33 169.165 320.269 170.119C320.241 170.542 320.194 171.128 320.164 171.42C320.133 171.712 320.144 172.982 320.186 174.242C320.368 179.672 320.332 182.653 320.021 187.706C319.798 191.347 319.772 191.679 319.575 193.402C319.479 194.236 319.334 195.502 319.256 196.217C318.788 200.421 317.983 204.691 317.363 206.244C317.052 207.025 317.073 207.375 317.536 209.12C318.252 211.814 318.596 213.618 319.396 218.894C319.927 222.402 320.057 226.466 319.835 232.671C319.527 241.217 319.32 243.121 318.402 245.787C317.837 247.428 317.548 248.012 317.1 248.422C315.949 249.47 314.511 249.396 312.408 248.177C311.53 247.667 311.085 247.499 310.882 247.596C310.676 247.694 310.338 249.5 309.72 253.801C308.703 260.908 308.688 261.002 307.75 266.235C307.354 268.448 306.953 271.196 306.861 272.338C306.503 276.72 306.594 282.827 307.068 286.247C307.326 288.114 307.306 288.52 306.912 289.637C306.134 291.844 304.929 292.448 302.811 291.692C301.669 291.285 300.776 290.686 298.714 288.944C298.046 288.38 297.062 287.575 296.53 287.154C295.998 286.734 294.99 285.877 294.291 285.25C293.442 284.489 292.927 284.154 292.749 284.24C292.567 284.327 292.371 284.915 292.161 286.007C291.988 286.908 291.641 288.537 291.391 289.624C291.142 290.712 290.808 292.235 290.652 293.009C290.496 293.782 290.074 295.255 289.714 296.281C288.628 299.387 287.467 303.83 287.471 304.865C287.477 306.553 286.306 307.042 285.735 307.827C285 308.831 281.459 308.253 280.28 307.837C279.154 307.44 274.839 307.312 274.661 306.004C274.423 304.241 280.025 307.166 277.746 306.004C275.223 304.718 274.816 304.62 273.922 305.079C273.18 305.461 273.066 305.453 271.51 304.904C269.846 304.317 267.259 302.962 266.39 302.221C265.66 301.599 264.364 299.539 264.255 298.825C264.201 298.475 264.323 297.739 264.528 297.19C264.854 296.305 265 296.151 265.788 295.851C266.545 295.562 266.801 295.571 267.504 295.907C267.996 296.141 268.703 296.761 269.25 297.438C269.754 298.064 270.266 298.612 270.384 298.653C270.502 298.695 270.905 298.441 271.275 298.087C272.646 296.783 273.964 296.802 275.368 298.143C275.766 298.522 276.863 299.224 277.807 299.706C278.753 300.186 280.06 300.91 280.712 301.315C281.438 301.765 281.998 302.003 282.15 301.931C282.453 301.785 285.123 293.682 285.849 290.71C287.623 283.439 287.843 282.355 287.904 280.586C287.929 279.87 287.803 279.18 287.601 278.915C287.121 278.284 287.111 277.24 287.58 276.325C288.038 275.428 288.699 275.004 289.735 274.939C290.846 274.872 291.947 275.588 295.1 278.44C298.899 281.874 300.634 283.262 300.945 283.113C301.162 283.01 301.241 282.492 301.232 281.22C301.208 276.314 301.865 267.038 302.575 262.272C302.653 261.743 302.766 260.92 302.825 260.446C303.661 253.574 304.84 246.985 305.641 244.714C306.147 243.278 306.149 243.196 305.704 242.3C305.549 241.992 305.397 241.681 305.243 241.372C305.217 241.025 305.19 240.678 305.166 240.332C305.145 240.494 305.124 240.655 305.103 240.817C305.085 240.979 305.064 241.14 305.043 241.302Z" fill="#1C1C1C"></path>
<path fill-rule="evenodd" clip-rule="evenodd" d="M199.137 164.333C203.175 156.815 207.7 152.43 211.901 151.958C213.331 151.797 215.146 152.473 216.156 153.542C217.114 154.555 218.238 157.005 218.632 158.94C219.863 164.99 218.247 173.998 214.599 181.419C213.365 183.928 213.335 183.982 212.122 185.871C208.924 190.842 204.805 194.191 201.498 194.506C197.747 194.865 195.165 191.429 194.521 185.22C194.238 182.493 194.432 179.535 195.125 175.993C195.595 173.588 198.144 166.178 199.137 164.333Z" fill="#1C1C1C"></path>
<path fill-rule="evenodd" clip-rule="evenodd" d="M239.312 179.399C242.263 173.616 245.065 170.045 248.379 167.848C249.71 166.966 251.58 166.26 252.793 166.183C253.853 166.115 255.725 166.885 256.597 167.745C258.251 169.375 259.421 173.006 259.532 176.847C259.59 178.899 259.143 183.302 258.624 185.769C258.156 187.991 256.025 194.086 255.127 195.764C252.709 200.292 251.377 202.217 248.935 204.725C246.311 207.416 243.897 208.75 241.561 208.799C236.65 208.901 233.959 202.262 235.224 193.164C235.848 188.674 237.612 182.732 239.312 179.399Z" fill="#1C1C1C"></path>
<path d="M281.026 229.985C280.232 232.235 278.353 238.191 278.222 241.279C278.187 242.475 278.064 243.934 277.882 245.614C277.8 246.353 277.735 246.862 277.71 247.464" stroke="#1C1C1C" stroke-width="5.09614" stroke-linecap="round"></path>
<path d="M168.401 247.503L168.463 247.525" stroke="#1C1C1C" stroke-width="5.09614" stroke-linecap="round"></path>
<path d="M203.262 118.752C202.906 119.391 201.125 122.646 198.438 126.734C197.315 128.444 194.855 130.665 193.557 131.605C192.259 132.545 191.995 131.985 191.899 131.414C191.218 127.361 195.039 121.766 200.014 118.391C203.424 116.078 210.112 112.593 219.834 109.299C228.607 107.316 233.429 106.763 234.257 107.232C234.5 107.584 234.383 108.168 234.173 109.978" stroke="#1C1C1C" stroke-width="12.7404" stroke-linecap="round"></path>
<path d="M216.585 122.45C218.174 121.934 222.334 120.772 227.144 120.652C240.507 121.588 245.65 121.793 250.035 121.733C250.767 121.599 251.236 121.277 251.719 120.946" stroke="#1C1C1C" stroke-width="12.7404" stroke-linecap="round"></path>
<path d="M231.811 145.683C234.088 139.223 239.106 126.595 243.397 124.128C249.315 122.321 255.645 123.764 261.15 124.447C262.218 124.046 263.319 123.072 264.453 122.069" stroke="#1C1C1C" stroke-width="12.7404" stroke-linecap="round"></path>
<path d="M239.159 140.168C239.652 139.662 241.63 138.191 243.922 137.209C249.27 134.917 259.235 135.013 270.128 131.139C272.467 130.335 273.273 130.16 274.997 129.893C276.721 129.627 279.338 129.273 283.678 128.847" stroke="#1C1C1C" stroke-width="12.7404" stroke-linecap="round"></path>
<path d="M198.159 111.429C198.276 111.373 200.102 110.994 208.634 110.522C215.391 110.149 227.114 110.516 233.705 110.688C243.287 111.481 248.931 111.644 257.451 111.691C261.816 111.906 266.267 112.51 271.021 112.907" stroke="#1C1C1C" stroke-width="12.7404" stroke-linecap="round"></path>
<path d="M239.59 102.702C239.879 102.804 240.169 102.907 245.939 104.846C251.709 106.786 262.95 110.561 270.756 114.451C278.561 118.342 282.591 122.235 286.972 125.961" stroke="#1C1C1C" stroke-width="12.7404" stroke-linecap="round"></path>
<path d="M266.821 149.612C267.175 149.154 270.5 146.656 276.576 145.36C279.433 144.751 284.37 145.323 290.413 145.203C296.455 145.083 303.519 144.799 307.417 144.695C311.315 144.592 311.835 144.676 312.283 143.705" stroke="#1C1C1C" stroke-width="12.7404" stroke-linecap="round"></path>
<path d="M273.799 140.371C278.394 140.721 288.688 141.708 294.865 143.304C297.335 143.818 300.691 144.353 302.487 144.362C304.282 144.371 304.415 143.839 304.552 143.291" stroke="#1C1C1C" stroke-width="12.7404" stroke-linecap="round"></path>
<path d="M267.498 141.699C268.994 137.577 273.721 126.002 274.669 122.955C274.763 122.655 273.943 122.746 274.034 123.09C275.9 130.154 292.512 131.925 296.182 134.626C297.33 135.544 299.88 136.937 303.346 138.634C304.737 139.318 305.381 139.644 307.017 140.154" stroke="#1C1C1C" stroke-width="12.7404" stroke-linecap="round"></path>
<path d="M298.068 137.094C297.462 139.513 295.948 148.231 294.75 159.35C293.663 166.298 291.602 175.896 290.352 180.594C289.102 185.292 288.724 184.797 288.334 184.288" stroke="#1C1C1C" stroke-width="12.7404" stroke-linecap="round"></path>
<path d="M297.781 155.467C297.744 155.503 297.707 155.539 296.103 160.028C294.499 164.517 291.33 173.459 289.144 181.037C285.289 194.409 284.687 201.226 284.449 203.756C284.24 205.744 283.852 209.161 283.642 211.199C283.433 213.237 283.414 213.792 283.034 213.454" stroke="#1C1C1C" stroke-width="12.7404" stroke-linecap="round"></path>
<path d="M159.846 257.08C159.791 257.106 157.637 263.086 153.348 274.045C151.365 279.113 149.052 282.879 147.723 284.57C146.394 286.26 145.933 285.685 145.673 284.99C144.602 282.12 148.403 272.884 152.603 265.854C156.876 258.703 162.748 255.613 163.376 255.554C163.652 255.529 163.216 256.619 160.223 261.649C157.229 266.679 151.531 275.898 147.684 282.864C141.528 294.01 139.785 300.282 139.553 302.154C139.064 306.08 144.106 292.825 148.588 286.322C152.335 280.884 159.684 271.541 164.085 266.037C169.649 259.079 172.052 257.416 173.153 256.972C173.976 256.641 171.801 260.148 168.244 266.467C165.861 270.699 162.288 279.024 159.5 285.414C154.858 296.053 152.779 302.475 151.599 306.019C149.847 311.283 151.032 313.426 151.281 314.049C151.689 315.068 152.782 308.302 155.443 297.712C157.157 290.894 160.655 281.429 163.188 275.521C165.722 269.614 167.453 267.623 168.543 266.867C169.632 266.112 170.027 266.652 168.639 273.634C167.25 280.615 164.066 294.023 163.002 300.091C161.938 306.159 163.09 304.482 164.26 302.298C168.929 293.583 171.653 288.73 174.993 284.941C175.674 284.168 175.878 283.511 176.239 283.001C176.6 282.492 177.054 282.103 174.674 289.403C172.294 296.703 167.065 311.704 168.319 313.431C176.4 324.564 185.626 291.692 185.386 293.829C185.246 295.087 184.577 296.621 184.903 296.524C191.423 294.584 195.068 286.786 199.028 285.558C199.754 285.332 200.363 285.878 200.664 286.33C200.965 286.783 200.974 287.384 201.294 287.47C202.277 287.733 204.986 285.902 213.147 283.848C219.217 282.538 229.2 280.683 238.104 279.641C247.007 278.598 254.528 278.423 261.01 277.581" stroke="#1C1C1C" stroke-width="12.7404" stroke-linecap="round"></path>
<path d="M184.369 313.602C188.871 309.289 193.374 304.975 198.994 300.821C204.615 296.668 211.217 292.804 216.124 290.435C221.031 288.066 224.044 287.308 227.254 286.678" stroke="#1C1C1C" stroke-width="12.7404" stroke-linecap="round"></path>
<path d="M162.474 328.386C162.732 328.477 162.991 328.568 168.864 330.639C174.737 332.71 186.218 336.758 193.48 338.948C206.449 342.86 212.252 340.345 218.215 337.422C221.023 336.046 225.29 332.328 229.508 327.931C233.725 323.533 237.506 318.137 240.743 312.655C247.017 302.03 249.405 295.658 250.554 293.24C255.036 283.807 258.349 278.984 261.318 273.87C267.202 263.735 268.422 258.092 268.664 254.846C268.996 250.375 269.705 244.541 271.035 239.424C273.206 231.073 274.95 225.215 275.585 222.811C275.957 221.226 276.224 219.23 276.512 216.938C276.729 215.739 277.092 214.471 277.466 213.164" stroke="#1C1C1C" stroke-width="12.7404" stroke-linecap="round"></path>
<path d="M277.466 213.164C277.48 213.126 278.597 209.874 280.912 202.997C283.463 195.416 284.794 190.574 285.421 187.827C287.598 178.291 289.18 171.841 290.118 167.076C291.178 161.693 292.081 158.339 294.156 151.319C295.397 145.236 296.851 137.458 296.927 133.882C296.915 132.348 296.799 131.383 296.183 129.173" stroke="#1C1C1C" stroke-width="12.7404" stroke-linecap="round"></path>
<path d="M308.417 142.974C308.382 143.074 305.476 151.37 300.995 164.355C299.034 170.035 298.083 178.59 296.44 191.372C294.302 203.238 293.503 206.675 292.715 209.625C292.489 210.482 292.199 211.625 291.901 212.802" stroke="#1C1C1C" stroke-width="12.7404" stroke-linecap="round"></path>
<path d="M312.789 151.665C312.82 151.578 310.04 159.496 305.792 172.568C303.544 179.486 305.18 187.376 306.551 196.183C307.833 204.42 307.76 213.379 309.543 218.27C310.404 221.26 310.77 223.404 311.103 225.392C311.278 226.389 311.464 227.363 311.654 228.778" stroke="#1C1C1C" stroke-width="12.7404" stroke-linecap="round"></path>
<path d="M315.845 156.065C314.847 158.822 312.794 165.941 314.062 177.628C314.697 183.292 314.942 189.622 314.932 195.682C314.949 197.953 315.008 198.587 314.628 198.577" stroke="#1C1C1C" stroke-width="12.7404" stroke-linecap="round"></path>
<path d="M280.75 255.767C280.733 255.814 279.103 260.436 276.368 269.382C274.695 277.695 273.86 284.544 273.431 289.07C273.262 290.83 273.192 291.501 273.451 292.04" stroke="#1C1C1C" stroke-width="12.7404" stroke-linecap="round"></path>
<path d="M286.535 261.151C285.962 262.777 284.595 267.508 285.257 274.681C285.989 279.324 287.423 287.723 288.209 292.403C288.996 297.082 289.092 297.787 289.16 299.105" stroke="#1C1C1C" stroke-width="12.7404" stroke-linecap="round"></path>
<path d="M294.811 254.355C293.913 256.968 293.883 257.329 294.131 259.855C294.617 262.209 295.794 265.685 297.745 270.765C298.83 273.528 300.11 276.665 301.642 278.651" stroke="#1C1C1C" stroke-width="12.7404" stroke-linecap="round"></path>
<path d="M312.612 230.088C311.631 232.868 310.651 235.648 309.851 237.918C309.05 240.188 308.459 241.864 307.652 244.674" stroke="#1C1C1C" stroke-width="12.7404" stroke-linecap="round"></path>
<path d="M187.498 135.945C188.111 134.563 182.123 141.445 190.853 134.625C193.489 132.938 198.982 129.679 207.613 124.564C211.702 122.168 215.201 120.178 217.809 116.43" stroke="#1C1C1C" stroke-width="12.7404" stroke-linecap="round"></path>
<path d="M210.602 107.819C210.724 107.663 212.518 106.455 215.471 104.662C216.693 103.996 217.352 103.827 218.786 103.492C220.219 103.157 222.407 102.661 224.494 102.141" stroke="#1C1C1C" stroke-width="12.7404" stroke-linecap="round"></path>
<path d="M183.076 264.991C182.762 265.85 180.785 269.196 179.082 271.629C177.181 274.345 190.659 270.023 199.454 269.541C202.516 269.373 202.749 270.315 199.895 272.594C191.523 279.281 184.129 283.067 183.108 283.349C182.269 283.581 186.261 280.438 190.128 278.167C192.359 276.857 201.887 276.121 216.428 275.265C228.664 274.544 232.369 276.094 236.589 275.383C242.958 274.309 247.598 271.903 251.156 269.667C255.377 266.157 257.624 262.873 259.916 259.824C260.487 259.15 261.126 258.61 262.125 257.395" stroke="#1C1C1C" stroke-width="12.7404" stroke-linecap="round"></path>
<path d="M208.108 266.311C208.155 266.327 208.201 266.344 209.81 266.911C211.419 267.478 214.588 268.596 216.659 269.223C218.729 269.85 219.604 269.952 221.398 270.112" stroke="#1C1C1C" stroke-width="12.7404" stroke-linecap="round"></path>
<path d="M157.421 313.834C164.322 316.265 179.3 320.933 187.887 318.67C204.283 314.349 214.947 308.426 216.216 307.653C222.47 302.751 232.501 294.543 235.432 291.516C236.687 290.208 237.469 289.364 239.409 287.559" stroke="#1C1C1C" stroke-width="12.7404" stroke-linecap="round"></path>
<path d="M198.645 307.09C204.665 304.953 210.13 303.933 215.199 303.574C221.551 303.123 228.688 296.251 233.012 292.15C234.796 290.387 236.295 289.141 237.667 288.161C238.27 287.652 238.683 287.118 239.866 286.089" stroke="#1C1C1C" stroke-width="12.7404" stroke-linecap="round"></path>
<path d="M172.443 327.171C179.66 327.847 197.396 329.177 201.865 328.421C212.571 326.609 222.702 318.468 226.707 315.144C230.929 311.639 239.279 303.173 243.451 298.151C244.576 296.824 245.748 295.443 247.094 293.886C247.897 293.021 248.941 292.005 251.357 289.611" stroke="#1C1C1C" stroke-width="12.7404" stroke-linecap="round"></path>
<path d="M202.083 337.236C205.975 335.574 215.312 331.466 225.403 323.976C230.137 320.845 234.979 317.12 239.413 313.036C241.087 311.431 241.592 310.776 242.112 310.101" stroke="#1C1C1C" stroke-width="12.7404" stroke-linecap="round"></path>
<path d="M197.682 322.103C197.821 322.152 198.574 322.16 200.038 322.055C200.822 321.968 201.688 321.81 205.558 320.44C209.427 319.069 216.272 316.49 223.66 313.411" stroke="#1C1C1C" stroke-width="12.7404" stroke-linecap="round"></path>
<path d="M159.025 321.354C158.224 321.044 154.925 319.309 152.256 316.884C150.033 314.565 148.12 312.175 146.239 310.004C145.787 309.467 145.361 308.918 144.447 307.455" stroke="#1C1C1C" stroke-width="12.7404" stroke-linecap="round"></path>
<path d="M266.29 277.746C266.273 277.796 262.832 287.26 257.071 302.503C254.092 310.384 250.07 315.744 245.386 322.348C237.928 330.715 234.885 333.542 231.863 336.398C231.151 337.063 230.578 337.573 229.295 338.137" stroke="#1C1C1C" stroke-width="12.7404" stroke-linecap="round"></path>
<path d="M187.646 265.653C187.599 265.636 188.599 265.971 190.782 266.519C193.203 266.78 196.447 266.835 199.781 266.79C201.173 266.748 201.954 266.664 203.687 266.655" stroke="#1C1C1C" stroke-width="12.7404" stroke-linecap="round"></path>
<path d="M169.039 248.877L168.11 251.512" stroke="#1C1C1C" stroke-width="12.7404" stroke-linecap="round"></path>
<path d="M302.733 206.256C302.84 207.134 303.801 210.436 305.162 213.134C305.442 213.688 304.41 214.354 303.632 214.572C302.853 214.79 302.018 214.605 301.861 214.204C301.704 213.802 302.251 213.189 303.044 213.054C303.837 212.919 304.86 213.279 305.672 212.809" stroke="#1C1C1C" stroke-width="12.7404" stroke-linecap="round"></path>
<path d="M304.218 248.421C303.969 249.333 303.911 253.16 304.84 256.857C305.813 261.008 306.59 264.471 306.942 266.309C307.147 267.219 307.406 268.086 307.291 268.29" stroke="#1C1C1C" stroke-width="12.7404" stroke-linecap="round"></path>
<path d="M280.993 290.135C280.967 290.191 281.303 290.967 281.995 292.482C282.664 294.021 283.201 296.164 283.605 298.601C283.807 299.688 284.004 300.471 284.094 299.676" stroke="#1C1C1C" stroke-width="12.7404" stroke-linecap="round"></path>
<path d="M280.272 298.459C278.846 298.098 274.489 296.215 270.776 293.125C270.037 292.322 269.632 291.622 269.283 290.873C268.935 290.124 268.655 289.346 268.695 287.562" stroke="#1C1C1C" stroke-width="12.7404" stroke-linecap="round"></path>
<path d="M268.293 254.012C268.273 253.97 268.253 253.927 267.635 253.674C267.018 253.42 265.803 252.957 264.993 252.635" stroke="#1C1C1C" stroke-width="12.7404" stroke-linecap="round"></path>
<path d="M293.829 279.342C293.707 278.219 291.815 271.067 289.517 264.458C289.11 263.318 288.802 262.494 288.742 261.407C288.682 260.32 288.88 258.994 289.196 257.311" stroke="#1C1C1C" stroke-width="12.7404" stroke-linecap="round"></path>
<path d="M175.952 246.588C175.837 247.287 176.538 249.62 177.301 251.37C178.065 253.119 176.396 247.659 176.078 247.092C176.518 249.27 177.651 251.133 178.402 252.232C178.809 252.758 179.269 253.219 179.917 253.727" stroke="#C9FFDD" stroke-width="2.54807" stroke-linecap="round"></path>
<path d="M174.256 289.098C175.576 289.563 180.645 290.725 187.055 290.321C190.668 290.092 193.612 288.189 198.296 286.678C202.612 285.286 212.237 286.655 218.556 288.597C220.692 289.254 223.034 291.968 225.623 294.791C228.347 297.762 227.347 302.795 225.754 307.418C225.19 309.055 221.465 310.712 215.668 313.239C210.134 315.651 205.449 316.32 200.143 316.755C190.788 317.523 181.775 316.649 175.338 315.204C161.958 312.2 157.103 306.56 156.856 305.438C156.338 303.08 157.662 300.923 158.617 298.252C159.5 295.782 162.528 294.695 167.21 292.057C169.803 291.469 171.487 291.167 172.72 290.876C173.298 290.696 173.779 290.449 175.705 290.32" stroke="#C9FFDD" stroke-width="5.09614" stroke-linecap="round"></path>
<path d="M162.826 301.54C163.009 301.022 164.183 298.91 166.062 297.1C168.57 294.684 173.076 293.346 175.114 292.478C176.074 292.069 177.045 291.767 177.8 292.021C178.678 292.316 177.515 294.696 176.668 296.594C175.468 299.284 171.557 299.211 167.563 301.872C166.247 302.749 165.41 303.697 164.902 303.836C163.141 304.319 166.161 300.248 166.916 299.534C169.094 297.473 174.732 297.924 177.563 296.926C178.065 296.748 178.563 296.588 178.978 296.755C179.393 296.921 179.702 297.4 179.699 298.107C179.692 299.768 178.74 301.142 178.119 302.064C177.483 303.009 176.421 303.622 174.968 303.846C173.341 304.097 171.831 303.625 170.999 302.991C170.765 302.541 170.914 301.832 171.171 300.97C171.428 300.107 171.789 299.113 172.48 297.752" stroke="white" stroke-width="4.79198" stroke-linecap="round"></path>
<path d="M177.492 297.078C176.85 297.436 174.377 298.189 171.786 298.783C169.173 299.381 167.251 302.004 165.822 304.105C165.42 304.697 164.954 305.274 164.52 305.352C164.086 305.43 163.711 305 163.535 304.468C163.36 303.936 163.394 303.314 163.534 302.706C163.814 301.492 166.451 300.242 172.989 296.775C176.919 294.692 181.713 295.348 183.907 296.126C187.164 297.281 192.482 294.52 196.379 293.005C201.768 290.909 204.827 291.823 207.437 292.184C210.757 292.644 214.441 293.432 218.032 294.742C219.354 295.225 219.871 296.454 220.311 297.825C220.961 299.854 221.204 301.735 220.661 302.968C219.513 305.579 215.151 305.578 211.852 306.063C206.335 306.874 203.961 307.389 199.356 309.25C194.81 311.088 188.831 311.398 181.595 311.46C177.278 311.498 174.911 310.758 174.052 310.112C172.14 308.675 173.529 305.664 174.515 303.717C176.291 300.212 181.515 300.165 184.111 299.643C188.096 298.843 190.479 299.035 195.953 299.149C199.458 298.715 201.327 298.307 202.606 298.134C203.338 298.013 204.238 297.826 206.414 297.791" stroke="#C9FFDD" stroke-width="12.7404" stroke-linecap="round"></path>
<path d="M164.161 300.975C167.157 302.031 177.283 304.555 182.316 304.861C189.534 305.3 192.111 304.356 201.374 302.472C206.985 301.323 210.337 300.451 212.051 299.812C213.236 299.451 215.058 299.017 216.936 298.569" stroke="#1C1C1C" stroke-width="5.09614" stroke-linecap="round"></path>
<path d="M173.848 287.082C174.382 287.352 176.498 288.427 181.874 290.12C186.165 291.471 191.537 288.981 196.47 287.284C200.368 285.963 205.042 284.794 208.977 283.658C210.169 283.309 211.611 282.843 213.336 282.365" stroke="#1C1C1C" stroke-width="7.64422" stroke-linecap="round"></path>
</svg>